<svg width="241" height="58" viewBox="0 0 241 58" fill="none" xmlns="http://www.w3.org/2000/svg">
<rect width="241" height="57.1396" rx="7.83365" fill="white"/>
<path d="M40.165 7.83374C45.8626 7.83374 50.4814 12.4526 50.4814 18.1501C50.4814 23.8476 45.8625 28.4666 40.165 28.4666L40.6963 28.4792C46.147 28.7556 50.4814 33.2635 50.4814 38.783C50.4812 44.4803 45.8624 49.0984 40.165 49.0984H34.2383C31.8139 49.0984 29.8486 47.1331 29.8486 44.7087C29.8486 47.1332 27.8825 49.0984 25.458 49.0984H14.4834C11.5743 49.0982 9.21598 46.7399 9.21582 43.8308V39.5583C12.6903 39.352 16.5593 38.7843 20.3896 37.6589C27.2417 35.6458 34.0138 31.8406 38.1523 25.1208L40.0703 26.0613L39.7256 21.0037L35.5186 23.8308L37.3604 24.7332C33.37 31.1604 26.8457 34.8477 20.1426 36.8171C16.3997 37.9168 12.6157 38.4735 9.21582 38.6785V28.4666H24.5811C27.4902 28.4664 29.8485 26.1081 29.8486 23.199V7.83374H40.165ZM9.21582 28.4666V13.1013C9.21598 10.1922 11.5743 7.8339 14.4834 7.83374H29.8486L9.21582 28.4666Z" fill="#FDC200"/>
<path d="M177.209 38.563V13.7338H182.94V38.563H177.209Z" fill="#00152A"/>
<path d="M189.679 18.7909V13.7338H195.41V18.7909H189.679ZM189.679 38.563V21.9517H195.41V38.563H189.679Z" fill="#00152A"/>
<path d="M203.624 38.563V22.0359C203.624 21.46 203.638 20.8068 203.666 20.0763C203.694 19.3458 203.807 18.6083 204.003 17.8638C204.214 17.1193 204.593 16.445 205.141 15.8409C205.844 15.0542 206.602 14.5204 207.417 14.2395C208.246 13.9445 209.047 13.79 209.819 13.7759C210.592 13.7478 211.252 13.7338 211.8 13.7338H214.623V18.3695H212.011C211.112 18.3695 210.444 18.6013 210.009 19.0649C209.573 19.5144 209.356 20.0552 209.356 20.6874V38.563H203.624ZM200.042 26.3767V21.9517H214.623V26.3767H200.042Z" fill="#00152A"/>
<path d="M231.638 38.563C230.065 38.858 228.52 38.9845 227.003 38.9423C225.5 38.9142 224.151 38.6543 222.957 38.1627C221.777 37.657 220.878 36.8492 220.26 35.7394C219.698 34.6999 219.403 33.6463 219.375 32.5787C219.347 31.4971 219.333 30.2749 219.333 28.9123V15.6302H225.064V28.5751C225.064 29.4601 225.071 30.2609 225.085 30.9773C225.113 31.6797 225.261 32.2416 225.528 32.663C226.033 33.4637 226.841 33.8992 227.951 33.9694C229.061 34.0397 230.29 33.9835 231.638 33.8009V38.563ZM217.211 26.3767V21.9517H231.638V26.3767H217.211Z" fill="#00152A"/>
<rect x="173.399" y="41.636" width="58.3857" height="3.07293" fill="#00152A"/>
<path d="M162.424 25.3935V28.0273L162.419 28.0292L162.422 28.0273L156.716 22.3212L151.01 28.0263V25.3935L156.717 19.6865L162.424 25.3935Z" fill="#00152A"/>
<path d="M162.424 29.3448V31.9786L162.419 31.9805L162.422 31.9786L156.716 26.2725L151.01 31.9776V29.3448L156.717 23.6378L162.424 29.3448Z" fill="#00152A"/>
<path d="M108.177 21.3199C110.256 21.32 112.019 21.713 113.466 22.4996C114.927 23.2722 115.959 24.396 116.563 25.8707C116.844 26.531 117.027 27.2689 117.111 28.0836C117.195 28.8984 117.238 29.7271 117.238 30.5699V44.7086H114.477V40.9489C113.755 42.1295 112.821 43.0818 111.674 43.8033C110.045 44.8286 108.092 45.3414 105.817 45.3414C104.103 45.3414 102.663 45.0317 101.498 44.4137C100.346 43.7957 99.4817 42.9742 98.9058 41.9489C98.3298 40.9234 98.0415 39.8063 98.0415 38.5983C98.0415 37.3621 98.2871 36.3081 98.7788 35.4371C99.2845 34.5523 99.966 33.8291 100.823 33.2672C101.694 32.7053 102.699 32.2771 103.836 31.9821C104.988 31.7011 106.259 31.4545 107.65 31.2438C109.055 31.019 110.425 30.8299 111.759 30.6754C112.647 30.5645 113.461 30.4531 114.203 30.3483C114.173 28.3605 113.739 26.8678 112.897 25.8707C111.984 24.7891 110.396 24.2487 108.134 24.2487C106.575 24.2487 105.255 24.6001 104.173 25.3024C103.106 26.0048 102.354 27.1144 101.918 28.6315L98.9058 27.7467C99.4255 25.7098 100.472 24.1293 102.045 23.0055C103.619 21.8817 105.663 21.3199 108.177 21.3199ZM166.692 44.7086H163.911V41.5455C163.31 42.4071 162.594 43.1456 161.761 43.7604C160.314 44.814 158.544 45.3414 156.451 45.3414C154.33 45.3414 152.517 44.8139 151.014 43.7604C149.511 42.6928 148.36 41.253 147.559 39.441C146.758 37.6289 146.358 35.5849 146.358 33.3092C146.358 32.3891 146.424 31.5064 146.554 30.6608H149.873C149.723 31.4938 149.645 32.3763 149.645 33.3092C149.645 35.037 149.905 36.5963 150.424 37.9869C150.958 39.3636 151.753 40.4528 152.806 41.2535C153.86 42.054 155.18 42.4547 156.767 42.4547C158.383 42.4547 159.717 42.0607 160.771 41.274C161.824 40.4874 162.611 39.4055 163.13 38.0289C163.65 36.6383 163.911 35.0651 163.911 33.3092C163.911 32.0532 163.779 30.9023 163.521 29.8551V24.5768C163.538 24.5982 163.556 24.6196 163.573 24.6412V14.3658H166.692V44.7086ZM70.854 14.3658C72.5537 14.3659 74.036 14.7172 75.3003 15.4196C76.5645 16.1219 77.5481 17.0703 78.2505 18.2643C78.9527 19.4441 79.3032 20.7506 79.3032 22.1832C79.3032 23.8128 78.8685 25.2672 77.9976 26.5455C77.3958 27.4191 76.6525 28.1072 75.769 28.6119C77.124 29.1934 78.2326 30.0206 79.0933 31.0963C80.2171 32.501 80.7788 34.2012 80.7788 36.1959C80.7788 37.9519 80.4061 39.4693 79.6616 40.7477C78.9171 42.0119 77.8705 42.9881 76.522 43.6764C75.1734 44.3647 73.6067 44.7086 71.8228 44.7086H59.1382V14.3658H70.854ZM93.981 21.7828C94.7816 21.7267 95.5122 21.7833 96.1724 21.9518V24.86C95.3436 24.6493 94.4378 24.6002 93.4546 24.7125C92.4713 24.8249 91.5647 25.2179 90.7358 25.8922C89.9775 26.4821 89.409 27.1916 89.0298 28.0201C88.6505 28.8349 88.3974 29.7063 88.271 30.6334C88.1446 31.5464 88.0816 32.4523 88.0815 33.3512V44.7086H84.9839V21.9518H87.7651V25.5446C87.9007 25.3077 88.0483 25.0796 88.2075 24.86C88.6149 24.284 89.058 23.8131 89.5356 23.4479C90.1255 22.9283 90.8136 22.5351 91.6001 22.2682C92.3867 21.9873 93.1803 21.825 93.981 21.7828ZM133.154 21.3824C134.516 21.3825 135.703 21.5939 136.714 22.0153C137.74 22.4366 138.604 23.005 139.306 23.7213C140.023 24.4377 140.599 25.26 141.035 26.1871C141.47 27.1001 141.786 28.0764 141.983 29.1158C142.18 30.1412 142.278 31.1667 142.278 32.192V44.7086H139.159V33.0983C139.159 31.8341 139.039 30.6752 138.8 29.6217C138.562 28.5542 138.176 27.627 137.642 26.8405C137.122 26.0398 136.441 25.4214 135.598 24.986C134.769 24.5505 133.758 24.3327 132.564 24.3326C131.468 24.3326 130.499 24.5227 129.656 24.902C128.827 25.2813 128.124 25.8291 127.548 26.5455C126.987 27.2478 126.558 28.1046 126.263 29.1158C125.968 30.1273 125.821 31.2795 125.821 32.5719V44.7086H122.702V21.9518H125.504V25.1129C126.234 24.0564 127.141 23.2206 128.223 22.6051C129.656 21.7904 131.3 21.3824 133.154 21.3824ZM114.153 33.0602C113.441 33.1495 112.692 33.2414 111.907 33.3307C110.685 33.4711 109.477 33.6325 108.283 33.8151C107.103 33.9977 106.035 34.2155 105.08 34.4684C104.433 34.651 103.808 34.9105 103.204 35.2477C102.6 35.5708 102.101 36.0065 101.708 36.5543C101.328 37.1021 101.139 37.7836 101.139 38.5983C101.139 39.2583 101.301 39.8973 101.624 40.5153C101.961 41.1334 102.495 41.6469 103.225 42.0543C103.97 42.4616 104.953 42.6647 106.175 42.6647C107.622 42.6646 108.887 42.4051 109.968 41.8854C111.05 41.3657 111.92 40.6563 112.581 39.7574C113.241 38.8443 113.669 37.8182 113.866 36.6803C114.034 35.95 114.126 35.1496 114.14 34.2789C114.148 33.8096 114.149 33.4031 114.153 33.0602ZM62.2563 41.7379H71.0649C72.301 41.7379 73.4108 41.52 74.394 41.0846C75.3773 40.6351 76.1495 40.0028 76.7114 39.1881C77.2874 38.3733 77.5757 37.3898 77.5757 36.2379C77.5756 35.1142 77.3161 34.1027 76.7964 33.2037C76.2766 32.3047 75.5665 31.5881 74.6675 31.0543C73.7826 30.5066 72.771 30.233 71.6333 30.233H62.2563V41.7379ZM62.2563 27.3043H70.8325C71.8017 27.3043 72.6871 27.0864 73.4878 26.651C74.2885 26.2015 74.9207 25.5896 75.3843 24.817C75.8618 24.0445 76.1011 23.1525 76.1011 22.1412C76.101 20.7084 75.6023 19.5422 74.605 18.6432C73.6216 17.7441 72.3637 17.2946 70.8325 17.2946H62.2563V27.3043Z" fill="#00152A"/>
</svg>
